{
    "asset" : {
        "generator" : "Khronos glTF Blender I/O v0.9.10",
        "version" : "2.0"
    },
    "scene" : 0,
    "scenes" : [
        {
            "name" : "Scene",
            "nodes" : [
                0
            ]
        }
    ],
    "nodes" : [
        {
            "mesh" : 0,
            "name" : "Gun"
        }
    ],
    "materials" : [
        {
            "doubleSided" : true,
            "name" : "Gun",
            "pbrMetallicRoughness" : {}
        }
    ],
    "meshes" : [
        {
            "name" : "Gun",
            "primitives" : [
                {
                    "attributes" : {
                        "POSITION" : 0,
                        "NORMAL" : 1,
                        "TEXCOORD_0" : 2
                    },
                    "indices" : 3,
                    "material" : 0
                }
            ]
        }
    ],
    "accessors" : [
        {
            "bufferView" : 0,
            "componentType" : 5126,
            "count" : 8515,
            "max" : [
                3.415891170501709,
                5.74343204498291,
                3.7663474082946777
            ],
            "min" : [
                -3.415891170501709,
                0.014703035354614258,
                -3.7663474082946777
            ],
            "type" : "VEC3"
        },
        {
            "bufferView" : 1,
            "componentType" : 5126,
            "count" : 8515,
            "type" : "VEC3"
        },
        {
            "bufferView" : 2,
            "componentType" : 5126,
            "count" : 8515,
            "type" : "VEC2"
        },
        {
            "bufferView" : 3,
            "componentType" : 5123,
            "count" : 12516,
            "type" : "SCALAR"
        }
    ],
    "bufferViews" : [
        {
            "buffer" : 0,
            "byteLength" : 102180,
            "byteOffset" : 0
        },
        {
            "buffer" : 0,
            "byteLength" : 102180,
            "byteOffset" : 102180
        },
        {
            "buffer" : 0,
            "byteLength" : 68120,
            "byteOffset" : 204360
        },
        {
            "buffer" : 0,
            "byteLength" : 25032,
            "byteOffset" : 272480
        }
    ],
    "buffers" : [
        {
            "byteLength" : 297512,
            "uri" : "turret3.bin"
        }
    ]
}
